PathFileType	4	(X/Y/Z)	RBDS04\RBDS04runT35.trc
DataRate	CameraRate	NumFrames	NumMarkers	Units	OrigDataRate	OrigDataStartFrame	OrigNumFrames
150.000000	150.000000	6	33	mm	150.000000	0	4500
Frame#	Time	L.ASIS			L.Heel.Bottom			L.Heel.Lateral			L.Heel.Top			L.Iliac.Crest			L.MT1			L.MT5			L.PSIS			L.Shank.Bottom.Lateral			L.Shank.Bottom.Medial			L.Shank.Top.Lateral			L.Shank.Top.Medial			L.Thigh.Bottom.Lateral			L.Thigh.Bottom.Medial			L.Thigh.Top.Lateral			L.Thigh.Top.Medial			R.ASIS			R.ASY			R.Heel.Bottom			R.Heel.Lateral			R.Heel.Top			R.Iliac.Crest			R.MT1			R.MT5			R.PSIS			R.Shank.Bottom.Lateral			R.Shank.Bottom.Medial			R.Shank.Top.Lateral			R.Shank.Top.Medial			R.Thigh.Bottom.Lateral			R.Thigh.Bottom.Medial			R.Thigh.Top.Lateral			R.Thigh.Top.Medial			
		X1	Y1	Z1	X2	Y2	Z2	X3	Y3	Z3	X4	Y4	Z4	X5	Y5	Z5	X6	Y6	Z6	X7	Y7	Z7	X8	Y8	Z8	X9	Y9	Z9	X10	Y10	Z10	X11	Y11	Z11	X12	Y12	Z12	X13	Y13	Z13	X14	Y14	Z14	X15	Y15	Z15	X16	Y16	Z16	X17	Y17	Z17	X18	Y18	Z18	X19	Y19	Z19	X20	Y20	Z20	X21	Y21	Z21	X22	Y22	Z22	X23	Y23	Z23	X24	Y24	Z24	X25	Y25	Z25	X26	Y26	Z26	X27	Y27	Z27	X28	Y28	Z28	X29	Y29	Z29	X30	Y30	Z30	X31	Y31	Z31	X32	Y32	Z32	X33	Y33	Z33	

1	0	2257.177846943875	955.4991367369386	894.4857461662625	1753.025880778549	126.2990377841211	965.2810196562872	1787.630199880134	124.5277826480101	921.7849341590507	1783.376269914122	162.2525775572345	961.4885246939264	2213.714039358435	1023.995063715493	856.9451603153896	1942.559436512742	46.1420798573047	998.8687073778261	1907.448885520276	45.5100903341035	901.2735894648694	2099.99150077783	998.18600794596	963.1488378892029	1888.66170302483	222.1440296854972	903.088767433875	1852.900116520259	244.6854066698071	930.5982245867056	1924.030628740685	292.5871238164397	884.4995867094567	1888.709654164995	319.2098464182615	914.2822725258208	2102.792594535718	607.3792578728047	842.4154290998993	2043.209603209341	618.3575832005441	883.3003846691955	2108.991956961524	716.5840403950556	826.9533213785888	2054.105355282731	727.9159654277844	867.1438741284385	2266.646301197184	958.2528771689599	1085.137670610016	2176.05656524015	216.523186556627	1065.908005840809	2023.981325071788	310.8180848147767	1049.953718165611	2055.31352708436	298.4315008091862	1092.197096823265	2064.550585757175	332.8391696705789	1050.386095817693	2210.392033219434	1020.14660168658	1137.691485394431	2172.419775486412	157.5227735580634	1030.209113281636	2143.105316378092	176.3325176823262	1123.060579382416	2102.842774992336	999.8086729023565	1048.241115216776	2164.682970710406	355.353184121598	1106.661369472063	2144.1634406752	384.5780060240232	1066.051464795281	2218.102005700877	415.384983700686	1119.136158639061	2196.707297610433	443.158085662949	1078.447229708433	2366.121734366521	641.3429586382532	1153.016569777215	2319.457898915055	606.5721450568926	1108.205841226398	2290.904925548261	720.1165738036956	1169.4286333425	2243.233375545654	683.6778179390124	1131.519554940767	
2	0.006666666666666667	2259.131212528875	958.6060055513789	894.2652214000501	1742.800560878967	141.3304913637045	964.2197601084102	1776.667326817742	136.4134369006291	920.6530700482547	1775.607999296004	174.4303788930896	959.9853991991596	2216.441237706702	1029.004722021952	857.2550081844689	1924.083659094264	46.89836797448845	998.0155435132164	1888.581465180387	47.77163107229208	900.3637980101968	2102.245025982932	1002.578621375954	962.3973430657283	1878.04533277063	229.8356953984426	901.2842366456098	1842.710404106454	251.7793367981387	929.8445599193153	1912.992163606393	300.6967781990261	883.4578379805454	1878.120074161872	326.6847332617677	914.272089004944	2095.229690117001	614.0291760844476	842.566368485664	2036.606157256394	626.5953012113124	884.2762075197865	2104.328917912194	722.9612850366962	827.3051740011888	2050.445878668674	735.6203569574856	868.412600399065	2268.007875400739	963.0034033425241	1084.517170347815	2198.718053175226	208.8009323396313	1065.17455862232	2041.772999179611	293.4512162251619	1048.06538393489	2073.434523354445	282.7761601934125	1090.526678839403	2080.668076492896	317.7675466136917	1048.887517984773	2211.546796856214	1025.665604728118	1136.722693870693	2199.204440939067	150.0038981673221	1029.589478435039	2168.133578005202	166.5429398440779	1121.884869260493	2104.699337885859	1004.516216372853	1047.624431776197	2179.156219555959	346.3214425152979	1105.483439385086	2156.781640087873	374.3123484075114	1064.875541697469	2228.509946143017	409.3712188472082	1118.261805082851	2205.803622435875	435.7164570814614	1077.378579581716	2368.453323611647	647.0105819070542	1152.373741160513	2321.089553788542	611.5867171514483	1108.806739945529	2293.039605093989	725.6284977079785	1169.090661747751	2245.185697885946	688.841911441605	1131.911064651313	
3	0.01333333333333333	2261.041369474325	961.6731358322273	894.0711720881164	1732.861227758592	156.4040393763062	963.1907719772897	1765.901734747429	148.3890077738161	919.5449894384681	1768.042413416867	186.6253762574077	958.4864941944411	2219.133833665746	1033.889382273094	857.5642375642115	1905.760462841577	47.93754075547512	997.1488444380989	1869.818021632874	50.33031919251141	899.5053198582129	2104.448680164761	1006.906572883476	961.6695221126511	1867.618339644574	237.5264373041699	899.4980450797898	1832.696692090251	258.914882307024	929.0560986689603	1902.223890236649	308.7564513517879	882.4175768474198	1867.788642940324	334.1566239618062	914.2066986056665	2087.938590366593	620.5736185418	842.7250570313182	2030.249192913451	634.6849735044899	885.2299250451414	2099.860173653908	729.2274595917521	827.6435539249853	2046.944662778722	743.1810256644311	869.6337862486922	2269.321528130699	967.6128174268376	1083.92959204101	2221.438592859323	201.1105398401195	1064.483649481595	2059.782085822628	276.0770951745826	1046.144841311538	2091.714187654079	267.0877327226463	1088.849079368368	2096.96989453303	302.6627554509461	1047.390720341165	2212.683224217862	1031.023972240057	1135.800162146777	2226.038534835014	142.6076432874606	1028.990703183674	2193.233320673246	156.7840789139461	1120.718119860611	2106.517673103732	1009.121376551144	1047.02482104298	2193.666392939933	337.2249793101084	1104.348119238928	2169.509657875612	363.9481299698764	1063.712842029236	2238.912578414427	403.214023939023	1117.423183359582	2214.941989941901	428.1133723258044	1076.336276577968	2370.548337770624	652.3917871741327	1151.68556713495	2322.480629661241	616.3571151354784	1109.333190018781	2294.991883248003	730.9083321348912	1168.678849102649	2246.93653514853	693.8039123268961	1132.205404908212	
4	0.02	2262.868379291612	964.6723885630812	893.9271184290862	1723.421836707674	171.5453284873374	962.2069475991765	1755.477789603398	160.521494239873	918.4731579692043	1760.820263479129	198.8485369832943	956.9887497405698	2221.751759590301	1038.550283262781	857.8756041150918	1887.706228401936	49.52323100869112	996.2758660891844	1851.238031211053	53.44451461363828	898.7561121092809	2106.55716535783	1011.119313501038	960.9925118083476	1857.527643945497	245.2172898699492	897.7498852235533	1822.994772514951	266.1369083800574	928.2032476383931	1891.949646715405	316.7238014757458	881.3820949505966	1857.927125101281	341.630471738458	914.0354851109329	2081.167389004631	626.9172030407724	842.8962897930028	2024.356770225544	642.4947406758591	886.1285739225546	2095.764015035697	735.2831918600366	827.9511118786914	2043.741087062779	750.4702408513183	870.7488693554255	2270.549105797304	971.9562982126978	1083.405362007462	2244.30759797663	193.5408445751658	1063.843587246594	2078.272909170817	258.6836037788555	1044.193231561172	2110.371323795594	251.3558301154592	1087.174358066529	2113.67521894736	287.4906576533365	1045.91037411986	2213.790030966744	1036.075147072305	1134.968300516131	2253.003014696174	135.51160706079	1028.400968493359	2218.532971161011	147.172019548896	1119.557789472701	2108.264107020524	1013.537381130167	1046.463807017961	2208.286326832119	328.0145851496378	1103.289302863281	2182.476931034424	353.4008616787175	1062.581304539768	2249.332663725191	396.784691857281	1116.654526498922	2224.179775268727	420.1994379475203	1075.352458187876	2372.170201165196	657.2139159250407	1150.923374430232	2323.400554535845	620.6606213904025	1109.712288239646	2296.580288301211	735.7362247739586	1168.139367828988	2248.290488466595	698.3804975464953	1132.315857830396	
5	0.02666666666666667	2264.576788583819	967.578548626266	893.8514484683635	1714.635217670328	186.7506790807727	961.2761925259335	1745.500530173051	172.8433028285074	917.4504608690507	1754.034052824698	211.0920296518542	955.4947621274557	2224.252346485669	1042.909190283081	858.1920533772851	1870.018233098229	51.87480312504128	995.4185534262476	1832.915423127128	57.31863265379448	898.1729962680732	2108.530910910423	1015.169214759553	960.3898777835934	1847.886483192477	252.9046643097836	896.0612854868011	1813.71198555017	273.4804353130754	927.2690957567332	1882.347811318444	324.557668815155	880.35747200455	1848.708495769525	349.1064283196751	913.723569680073	2075.131630179554	632.9619533804092	843.0810016526248	2019.114422821163	649.8966933761608	886.9355294138114	2092.196028429891	741.0296603056452	828.21024604175	2040.952904845137	757.3655290903785	871.6987502181796	2271.660648786331	975.9298908642039	1082.968356279405	2267.3713719068	186.1961232083321	1063.249296980685	2097.447569860691	241.2874594861109	1042.228729733666	2129.576697576127	235.6050923738913	1085.520251001274	2130.948193133127	272.2465887723866	1044.466689788451	2214.856569766261	1040.6931412048	1134.264490637918	2280.128872085982	128.8906849395813	1027.798810769154	2244.118522348847	137.8466140280022	1118.399450155731	2109.907220757067	1017.686665158564	1045.961129132364	2223.064829468256	318.6683802809707	1102.333410230995	2195.77126775782	342.622256380395	1061.501288454634	2259.780678291633	389.9909131816514	1115.985208647934	2233.551181453671	411.8674850419474	1074.458325182697	2373.117004155887	661.2444092714344	1150.073183917237	2323.6567588742	624.311845584592	1109.883648216971	2297.650105127027	739.9231115608378	1167.44026539562	2249.083457182359	702.4176449208472	1132.177269288657	
6	0.03333333333333333	2266.138126323316	970.368985401178	893.8557790977534	1706.575938002868	201.987641779501	960.3988934113505	1736.024837908491	185.3504191033947	916.4887219452521	1747.715291760794	223.33193204377	954.0132440709123	2226.590216921596	1046.913503687527	858.5164862775531	1852.766437489759	55.15866472282843	994.6167602044405	1814.915284805407	62.09340156157532	897.8090667980084	2110.338443240012	1019.011823239874	959.8798104051458	1838.765468249909	260.5836602071557	894.4560487041897	1804.920336587593	280.9725696819534	926.2528690030351	1873.539182978288	332.2220548843901	879.3535169196102	1840.257281359012	356.5820336881823	913.2563419447692	2070.005215351783	638.606133240594	843.2755799737649	2014.666584586974	656.7667480856301	887.6109431573993	2089.281990477531	746.3682889308019	828.4039723356065	2038.670549614264	763.7501278935947	872.4260267088437	2272.637145318425	979.4565939200897	1082.634135965825	2290.621140202027	179.1994584276169	1062.67881412304	2117.428719961491	223.9412248181452	1040.2884970287	2149.439980980205	219.9029648755545	1083.912062124761	2148.882614982488	256.9624551640384	1043.085727264219	2215.873090945182	1044.779839402729	1133.715812280718	2307.383551224981	122.9166776475047	1027.15008120673	2270.021792257473	128.975738455342	1117.234373735113	2111.419434523486	1021.50371652008	1045.533582605826	2238.018741822186	309.1991367540965	1101.496327391377	2209.42696946846	331.6095476137746	1060.4943988581	2270.249676692947	382.7868645623687	1115.436951296052	2243.059411035491	403.0639187615668	1073.682024622711	2373.231179101985	664.3036814435137	1149.140441364744	2323.105453665766	627.1748033381048	1109.804115593406	2298.081023279709	743.3208233121571	1166.578116433843	2249.19226296721	705.8006732881527	1131.752695144371	
